%TF.GenerationSoftware,KiCad,Pcbnew,10.0.0*%
%TF.CreationDate,2026-03-25T13:37:46+01:00*%
%TF.ProjectId,Untitled,556e7469-746c-4656-942e-6b696361645f,rev?*%
%TF.SameCoordinates,Original*%
%TF.FileFunction,Paste,Top*%
%TF.FilePolarity,Positive*%
%FSLAX46Y46*%
G04 Gerber Fmt 4.6, Leading zero omitted, Abs format (unit mm)*
G04 Created by KiCad (PCBNEW 10.0.0) date 2026-03-25 13:37:46*
%MOMM*%
%LPD*%
G01*
G04 APERTURE LIST*
G04 Aperture macros list*
%AMRoundRect*
0 Rectangle with rounded corners*
0 $1 Rounding radius*
0 $2 $3 $4 $5 $6 $7 $8 $9 X,Y pos of 4 corners*
0 Add a 4 corners polygon primitive as box body*
4,1,4,$2,$3,$4,$5,$6,$7,$8,$9,$2,$3,0*
0 Add four circle primitives for the rounded corners*
1,1,$1+$1,$2,$3*
1,1,$1+$1,$4,$5*
1,1,$1+$1,$6,$7*
1,1,$1+$1,$8,$9*
0 Add four rect primitives between the rounded corners*
20,1,$1+$1,$2,$3,$4,$5,0*
20,1,$1+$1,$4,$5,$6,$7,0*
20,1,$1+$1,$6,$7,$8,$9,0*
20,1,$1+$1,$8,$9,$2,$3,0*%
G04 Aperture macros list end*
%ADD10RoundRect,0.250000X-0.262500X-0.450000X0.262500X-0.450000X0.262500X0.450000X-0.262500X0.450000X0*%
%ADD11RoundRect,0.150000X-0.150000X-0.575000X0.150000X-0.575000X0.150000X0.575000X-0.150000X0.575000X0*%
%ADD12RoundRect,0.075000X-0.075000X-0.650000X0.075000X-0.650000X0.075000X0.650000X-0.075000X0.650000X0*%
%ADD13R,0.475000X0.250000*%
%ADD14R,0.250000X0.475000*%
%ADD15RoundRect,0.250000X-0.525000X-0.400000X0.525000X-0.400000X0.525000X0.400000X-0.525000X0.400000X0*%
%ADD16RoundRect,0.375000X-0.625000X-0.375000X0.625000X-0.375000X0.625000X0.375000X-0.625000X0.375000X0*%
%ADD17RoundRect,0.500000X-0.500000X-1.400000X0.500000X-1.400000X0.500000X1.400000X-0.500000X1.400000X0*%
%ADD18R,0.900000X0.900000*%
%ADD19R,1.500000X0.900000*%
%ADD20R,0.900000X1.500000*%
%ADD21RoundRect,0.243750X-0.243750X-0.456250X0.243750X-0.456250X0.243750X0.456250X-0.243750X0.456250X0*%
G04 APERTURE END LIST*
D10*
%TO.C,R1*%
X120675000Y-94500000D03*
X122500000Y-94500000D03*
%TD*%
D11*
%TO.C,J1*%
X83570000Y-103905000D03*
X84370000Y-103905000D03*
D12*
X85570000Y-103905000D03*
X86570000Y-103905000D03*
X87070000Y-103905000D03*
X88070000Y-103905000D03*
D11*
X89270000Y-103905000D03*
X90070000Y-103905000D03*
X90070000Y-103905000D03*
X89270000Y-103905000D03*
D12*
X88570000Y-103905000D03*
X87570000Y-103905000D03*
X86070000Y-103905000D03*
X85070000Y-103905000D03*
D11*
X84370000Y-103905000D03*
X83570000Y-103905000D03*
%TD*%
D13*
%TO.C,U2*%
X124175000Y-105500000D03*
X124175000Y-106000000D03*
X124175000Y-106500000D03*
X124175000Y-107000000D03*
D14*
X124837500Y-107162500D03*
X125337500Y-107162500D03*
X125837500Y-107162500D03*
D13*
X126500000Y-107000000D03*
X126500000Y-106500000D03*
X126500000Y-106000000D03*
X126500000Y-105500000D03*
D14*
X125837500Y-105337500D03*
X125337500Y-105337500D03*
X124837500Y-105337500D03*
%TD*%
D15*
%TO.C,SW2*%
X89020000Y-125250000D03*
X96980000Y-125250000D03*
X89020000Y-129750000D03*
X96980000Y-129750000D03*
%TD*%
D16*
%TO.C,U3*%
X108200000Y-121200000D03*
X108200000Y-123500000D03*
D17*
X114500000Y-123500000D03*
D16*
X108200000Y-125800000D03*
%TD*%
D18*
%TO.C,U1*%
X105350000Y-90120000D03*
X105350000Y-91520000D03*
X105350000Y-92920000D03*
X106750000Y-90120000D03*
X106750000Y-91520000D03*
X106750000Y-92920000D03*
X108150000Y-90120000D03*
X108150000Y-91520000D03*
X108150000Y-92920000D03*
D19*
X99500000Y-83800000D03*
X99500000Y-85070000D03*
X99500000Y-86340000D03*
X99500000Y-87610000D03*
X99500000Y-88880000D03*
X99500000Y-90150000D03*
X99500000Y-91420000D03*
X99500000Y-92690000D03*
X99500000Y-93960000D03*
X99500000Y-95230000D03*
X99500000Y-96500000D03*
X99500000Y-97770000D03*
X99500000Y-99040000D03*
X99500000Y-100310000D03*
D20*
X101265000Y-101560000D03*
X102535000Y-101560000D03*
X103805000Y-101560000D03*
X105075000Y-101560000D03*
X106345000Y-101560000D03*
X107615000Y-101560000D03*
X108885000Y-101560000D03*
X110155000Y-101560000D03*
X111425000Y-101560000D03*
X112695000Y-101560000D03*
X113965000Y-101560000D03*
X115235000Y-101560000D03*
D19*
X117000000Y-100310000D03*
X117000000Y-99040000D03*
X117000000Y-97770000D03*
X117000000Y-96500000D03*
X117000000Y-95230000D03*
X117000000Y-93960000D03*
X117000000Y-92690000D03*
X117000000Y-91420000D03*
X117000000Y-90150000D03*
X117000000Y-88880000D03*
X117000000Y-87610000D03*
X117000000Y-86340000D03*
X117000000Y-85070000D03*
X117000000Y-83800000D03*
%TD*%
D21*
%TO.C,D1*%
X121062500Y-86500000D03*
X122937500Y-86500000D03*
%TD*%
D15*
%TO.C,SW1*%
X99040000Y-105500000D03*
X107000000Y-105500000D03*
X99040000Y-110000000D03*
X107000000Y-110000000D03*
%TD*%
M02*
