%TF.GenerationSoftware,KiCad,Pcbnew,10.0.0*%
%TF.CreationDate,2026-03-25T13:37:46+01:00*%
%TF.ProjectId,Untitled,556e7469-746c-4656-942e-6b696361645f,rev?*%
%TF.SameCoordinates,Original*%
%TF.FileFunction,Copper,L1,Top*%
%TF.FilePolarity,Positive*%
%FSLAX46Y46*%
G04 Gerber Fmt 4.6, Leading zero omitted, Abs format (unit mm)*
G04 Created by KiCad (PCBNEW 10.0.0) date 2026-03-25 13:37:46*
%MOMM*%
%LPD*%
G01*
G04 APERTURE LIST*
G04 Aperture macros list*
%AMRoundRect*
0 Rectangle with rounded corners*
0 $1 Rounding radius*
0 $2 $3 $4 $5 $6 $7 $8 $9 X,Y pos of 4 corners*
0 Add a 4 corners polygon primitive as box body*
4,1,4,$2,$3,$4,$5,$6,$7,$8,$9,$2,$3,0*
0 Add four circle primitives for the rounded corners*
1,1,$1+$1,$2,$3*
1,1,$1+$1,$4,$5*
1,1,$1+$1,$6,$7*
1,1,$1+$1,$8,$9*
0 Add four rect primitives between the rounded corners*
20,1,$1+$1,$2,$3,$4,$5,0*
20,1,$1+$1,$4,$5,$6,$7,0*
20,1,$1+$1,$6,$7,$8,$9,0*
20,1,$1+$1,$8,$9,$2,$3,0*%
G04 Aperture macros list end*
%TA.AperFunction,SMDPad,CuDef*%
%ADD10RoundRect,0.250000X-0.262500X-0.450000X0.262500X-0.450000X0.262500X0.450000X-0.262500X0.450000X0*%
%TD*%
%TA.AperFunction,SMDPad,CuDef*%
%ADD11RoundRect,0.150000X-0.150000X-0.575000X0.150000X-0.575000X0.150000X0.575000X-0.150000X0.575000X0*%
%TD*%
%TA.AperFunction,SMDPad,CuDef*%
%ADD12RoundRect,0.075000X-0.075000X-0.650000X0.075000X-0.650000X0.075000X0.650000X-0.075000X0.650000X0*%
%TD*%
%TA.AperFunction,ComponentPad*%
%ADD13O,1.000000X2.100000*%
%TD*%
%TA.AperFunction,ComponentPad*%
%ADD14O,1.000000X1.600000*%
%TD*%
%TA.AperFunction,SMDPad,CuDef*%
%ADD15R,0.475000X0.250000*%
%TD*%
%TA.AperFunction,SMDPad,CuDef*%
%ADD16R,0.250000X0.475000*%
%TD*%
%TA.AperFunction,SMDPad,CuDef*%
%ADD17RoundRect,0.250000X-0.525000X-0.400000X0.525000X-0.400000X0.525000X0.400000X-0.525000X0.400000X0*%
%TD*%
%TA.AperFunction,SMDPad,CuDef*%
%ADD18RoundRect,0.375000X-0.625000X-0.375000X0.625000X-0.375000X0.625000X0.375000X-0.625000X0.375000X0*%
%TD*%
%TA.AperFunction,SMDPad,CuDef*%
%ADD19RoundRect,0.500000X-0.500000X-1.400000X0.500000X-1.400000X0.500000X1.400000X-0.500000X1.400000X0*%
%TD*%
%TA.AperFunction,SMDPad,CuDef*%
%ADD20R,1.500000X0.900000*%
%TD*%
%TA.AperFunction,SMDPad,CuDef*%
%ADD21R,0.900000X1.500000*%
%TD*%
%TA.AperFunction,HeatsinkPad*%
%ADD22C,0.600000*%
%TD*%
%TA.AperFunction,HeatsinkPad*%
%ADD23R,3.900000X3.900000*%
%TD*%
%TA.AperFunction,SMDPad,CuDef*%
%ADD24RoundRect,0.243750X-0.243750X-0.456250X0.243750X-0.456250X0.243750X0.456250X-0.243750X0.456250X0*%
%TD*%
%TA.AperFunction,Conductor*%
%ADD25C,0.200000*%
%TD*%
G04 APERTURE END LIST*
D10*
%TO.P,R1,1*%
%TO.N,Net-(D1-A)*%
X120675000Y-94500000D03*
%TO.P,R1,2*%
%TO.N,Net-(U1-TXD0)*%
X122500000Y-94500000D03*
%TD*%
D11*
%TO.P,J1,A1,GND_A1*%
%TO.N,GND*%
X83570000Y-103905000D03*
%TO.P,J1,A4,VBUS_A4*%
%TO.N,+5V*%
X84370000Y-103905000D03*
D12*
%TO.P,J1,A5,CC1_A5*%
%TO.N,unconnected-(J1-CC1-PadA5)*%
X85570000Y-103905000D03*
%TO.P,J1,A6,D+_A6*%
%TO.N,Net-(U1-USB_D+)*%
X86570000Y-103905000D03*
%TO.P,J1,A7,D-_A7*%
%TO.N,Net-(U1-USB_D-)*%
X87070000Y-103905000D03*
%TO.P,J1,A8,SBU1_A8*%
%TO.N,unconnected-(J1-SBU1-PadA8)*%
X88070000Y-103905000D03*
D11*
%TO.P,J1,A9,VBUS_A9*%
%TO.N,+5V*%
X89270000Y-103905000D03*
%TO.P,J1,A12,GND_A12*%
%TO.N,GND*%
X90070000Y-103905000D03*
%TO.P,J1,B1,GND_B1*%
X90070000Y-103905000D03*
%TO.P,J1,B4,VBUS_B4*%
%TO.N,+5V*%
X89270000Y-103905000D03*
D12*
%TO.P,J1,B5,CC2_B5*%
%TO.N,unconnected-(J1-CC2-PadB5)*%
X88570000Y-103905000D03*
%TO.P,J1,B6,D+_B6*%
%TO.N,Net-(U1-USB_D+)*%
X87570000Y-103905000D03*
%TO.P,J1,B7,D-_B7*%
%TO.N,Net-(U1-USB_D-)*%
X86070000Y-103905000D03*
%TO.P,J1,B8,SBU2_B8*%
%TO.N,unconnected-(J1-SBU2-PadB8)*%
X85070000Y-103905000D03*
D11*
%TO.P,J1,B9,VBUS_B9*%
%TO.N,+5V*%
X84370000Y-103905000D03*
%TO.P,J1,B12,GND_B12*%
%TO.N,GND*%
X83570000Y-103905000D03*
D13*
%TO.P,J1,SH,SHIELD_SH*%
%TO.N,unconnected-(J1-SHIELD-PadSH)*%
X82500000Y-104820000D03*
D14*
X82500000Y-109000000D03*
D13*
X91140000Y-104820000D03*
D14*
X91140000Y-109000000D03*
%TD*%
D15*
%TO.P,U2,1,SDO_1*%
%TO.N,unconnected-(U2-SDO-Pad1)*%
X124175000Y-105500000D03*
%TO.P,U2,2,ASDX_2*%
%TO.N,unconnected-(U2-ASDX-Pad2)*%
X124175000Y-106000000D03*
%TO.P,U2,3,ASCX_3*%
%TO.N,unconnected-(U2-ASCX-Pad3)*%
X124175000Y-106500000D03*
%TO.P,U2,4,INT1_4*%
%TO.N,unconnected-(U2-INT1-Pad4)*%
X124175000Y-107000000D03*
D16*
%TO.P,U2,5,VDDIO_5*%
%TO.N,+3.3V*%
X124837500Y-107162500D03*
%TO.P,U2,6,GNDIO_6*%
%TO.N,GND*%
X125337500Y-107162500D03*
%TO.P,U2,7,GND_7*%
X125837500Y-107162500D03*
D15*
%TO.P,U2,8,VDD_8*%
%TO.N,+3.3V*%
X126500000Y-107000000D03*
%TO.P,U2,9,INT2_9*%
%TO.N,unconnected-(U2-INT2-Pad9)*%
X126500000Y-106500000D03*
%TO.P,U2,10,OSCB_10*%
%TO.N,unconnected-(U2-OSCB-Pad10)*%
X126500000Y-106000000D03*
%TO.P,U2,11,OSDO_11*%
%TO.N,unconnected-(U2-OSDO-Pad11)*%
X126500000Y-105500000D03*
D16*
%TO.P,U2,12,CSB_12*%
%TO.N,unconnected-(U2-CSB-Pad12)*%
X125837500Y-105337500D03*
%TO.P,U2,13,SCX_13*%
%TO.N,unconnected-(U2-SCX-Pad13)*%
X125337500Y-105337500D03*
%TO.P,U2,14,SDX_14*%
%TO.N,unconnected-(U2-SDX-Pad14)*%
X124837500Y-105337500D03*
%TD*%
D17*
%TO.P,SW2,1,1_1*%
%TO.N,Net-(U1-IO0)*%
X89020000Y-125250000D03*
X96980000Y-125250000D03*
%TO.P,SW2,2,2_2*%
%TO.N,GND*%
X89020000Y-129750000D03*
X96980000Y-129750000D03*
%TD*%
D18*
%TO.P,U3,1,ADJ_1*%
%TO.N,GND*%
X108200000Y-121200000D03*
%TO.P,U3,2,VO_2*%
%TO.N,+3.3V*%
X108200000Y-123500000D03*
D19*
X114500000Y-123500000D03*
D18*
%TO.P,U3,3,VI_3*%
%TO.N,+5V*%
X108200000Y-125800000D03*
%TD*%
D20*
%TO.P,U1,1,GND_1*%
%TO.N,GND*%
X99500000Y-83800000D03*
%TO.P,U1,2,3V3_2*%
%TO.N,+3.3V*%
X99500000Y-85070000D03*
%TO.P,U1,3,EN_3*%
%TO.N,Net-(U1-EN)*%
X99500000Y-86340000D03*
%TO.P,U1,4,IO4_4*%
%TO.N,unconnected-(U1-IO4-Pad4)*%
X99500000Y-87610000D03*
%TO.P,U1,5,IO5_5*%
%TO.N,unconnected-(U1-IO5-Pad5)*%
X99500000Y-88880000D03*
%TO.P,U1,6,IO6_6*%
%TO.N,unconnected-(U1-IO6-Pad6)*%
X99500000Y-90150000D03*
%TO.P,U1,7,IO7_7*%
%TO.N,unconnected-(U1-IO7-Pad7)*%
X99500000Y-91420000D03*
%TO.P,U1,8,IO15_8*%
%TO.N,unconnected-(U1-IO15-Pad8)*%
X99500000Y-92690000D03*
%TO.P,U1,9,IO16_9*%
%TO.N,unconnected-(U1-IO16-Pad9)*%
X99500000Y-93960000D03*
%TO.P,U1,10,IO17_10*%
%TO.N,unconnected-(U1-IO17-Pad10)*%
X99500000Y-95230000D03*
%TO.P,U1,11,IO18_11*%
%TO.N,unconnected-(U1-IO18-Pad11)*%
X99500000Y-96500000D03*
%TO.P,U1,12,IO8_12*%
%TO.N,unconnected-(U1-IO8-Pad12)*%
X99500000Y-97770000D03*
%TO.P,U1,13,USB_D-_13*%
%TO.N,Net-(U1-USB_D-)*%
X99500000Y-99040000D03*
%TO.P,U1,14,USB_D+_14*%
%TO.N,Net-(U1-USB_D+)*%
X99500000Y-100310000D03*
D21*
%TO.P,U1,15,IO3_15*%
%TO.N,unconnected-(U1-IO3-Pad15)*%
X101265000Y-101560000D03*
%TO.P,U1,16,IO46_16*%
%TO.N,unconnected-(U1-IO46-Pad16)*%
X102535000Y-101560000D03*
%TO.P,U1,17,IO9_17*%
%TO.N,unconnected-(U1-IO9-Pad17)*%
X103805000Y-101560000D03*
%TO.P,U1,18,IO10_18*%
%TO.N,unconnected-(U1-IO10-Pad18)*%
X105075000Y-101560000D03*
%TO.P,U1,19,IO11_19*%
%TO.N,unconnected-(U1-IO11-Pad19)*%
X106345000Y-101560000D03*
%TO.P,U1,20,IO12_20*%
%TO.N,unconnected-(U1-IO12-Pad20)*%
X107615000Y-101560000D03*
%TO.P,U1,21,IO13_21*%
%TO.N,unconnected-(U1-IO13-Pad21)*%
X108885000Y-101560000D03*
%TO.P,U1,22,IO14_22*%
%TO.N,unconnected-(U1-IO14-Pad22)*%
X110155000Y-101560000D03*
%TO.P,U1,23,IO21_23*%
%TO.N,unconnected-(U1-IO21-Pad23)*%
X111425000Y-101560000D03*
%TO.P,U1,24,IO47_24*%
%TO.N,unconnected-(U1-IO47-Pad24)*%
X112695000Y-101560000D03*
%TO.P,U1,25,IO48_25*%
%TO.N,unconnected-(U1-IO48-Pad25)*%
X113965000Y-101560000D03*
%TO.P,U1,26,IO45_26*%
%TO.N,unconnected-(U1-IO45-Pad26)*%
X115235000Y-101560000D03*
D20*
%TO.P,U1,27,IO0_27*%
%TO.N,Net-(U1-IO0)*%
X117000000Y-100310000D03*
%TO.P,U1,28,IO35_28*%
%TO.N,unconnected-(U1-IO35-Pad28)*%
X117000000Y-99040000D03*
%TO.P,U1,29,IO36_29*%
%TO.N,unconnected-(U1-IO36-Pad29)*%
X117000000Y-97770000D03*
%TO.P,U1,30,IO37_30*%
%TO.N,unconnected-(U1-IO37-Pad30)*%
X117000000Y-96500000D03*
%TO.P,U1,31,IO38_31*%
%TO.N,unconnected-(U1-IO38-Pad31)*%
X117000000Y-95230000D03*
%TO.P,U1,32,IO39_32*%
%TO.N,unconnected-(U1-IO39-Pad32)*%
X117000000Y-93960000D03*
%TO.P,U1,33,IO40_33*%
%TO.N,unconnected-(U1-IO40-Pad33)*%
X117000000Y-92690000D03*
%TO.P,U1,34,IO41_34*%
%TO.N,unconnected-(U1-IO41-Pad34)*%
X117000000Y-91420000D03*
%TO.P,U1,35,IO42_35*%
%TO.N,unconnected-(U1-IO42-Pad35)*%
X117000000Y-90150000D03*
%TO.P,U1,36,RXD0_36*%
%TO.N,unconnected-(U1-RXD0-Pad36)*%
X117000000Y-88880000D03*
%TO.P,U1,37,TXD0_37*%
%TO.N,Net-(U1-TXD0)*%
X117000000Y-87610000D03*
%TO.P,U1,38,IO2_38*%
%TO.N,unconnected-(U1-IO2-Pad38)*%
X117000000Y-86340000D03*
%TO.P,U1,39,IO1_39*%
%TO.N,unconnected-(U1-IO1-Pad39)*%
X117000000Y-85070000D03*
%TO.P,U1,40,GND_40*%
%TO.N,GND*%
X117000000Y-83800000D03*
D22*
%TO.P,U1,41,GND_41*%
X105350000Y-90820000D03*
X105350000Y-92220000D03*
X106050000Y-90120000D03*
X106050000Y-91520000D03*
X106050000Y-92920000D03*
X106750000Y-90820000D03*
D23*
X106750000Y-91520000D03*
D22*
X106750000Y-92220000D03*
X107450000Y-90120000D03*
X107450000Y-91520000D03*
X107450000Y-92920000D03*
X108150000Y-90820000D03*
X108150000Y-92220000D03*
%TD*%
D24*
%TO.P,D1,1,K_1*%
%TO.N,GND*%
X121062500Y-86500000D03*
%TO.P,D1,2,A_2*%
%TO.N,Net-(D1-A)*%
X122937500Y-86500000D03*
%TD*%
D17*
%TO.P,SW1,1,1_1*%
%TO.N,Net-(U1-EN)*%
X99040000Y-105500000D03*
X107000000Y-105500000D03*
%TO.P,SW1,2,2_2*%
%TO.N,GND*%
X99040000Y-110000000D03*
X107000000Y-110000000D03*
%TD*%
%TO.N,Net-(U1-TXD0)*%
D25*
X117530000Y-87610000D02*
X117000000Y-87610000D01*
%TO.N,GND*%
X90505000Y-103470000D02*
X92510000Y-103470000D01*
X83135000Y-103470000D02*
X83570000Y-103905000D01*
X126275000Y-107600000D02*
X125837500Y-107162500D01*
X81700000Y-105701371D02*
X81700000Y-103938629D01*
X127037500Y-107425000D02*
X126862500Y-107600000D01*
X108200000Y-121200000D02*
X107000000Y-120000000D01*
X125337500Y-107162500D02*
X125337500Y-107625000D01*
X92510000Y-103470000D02*
X99040000Y-110000000D01*
X126862500Y-107600000D02*
X126275000Y-107600000D01*
X107000000Y-120000000D02*
X107000000Y-110000000D01*
X118882500Y-84320000D02*
X121062500Y-86500000D01*
X81700000Y-122430000D02*
X89020000Y-129750000D01*
X82168629Y-106170000D02*
X81700000Y-105701371D01*
X109900000Y-123062500D02*
X109900000Y-126620280D01*
X89020000Y-129750000D02*
X96980000Y-129750000D01*
X121062500Y-86500000D02*
X127037500Y-92475000D01*
X125337500Y-107625000D02*
X109900000Y-123062500D01*
X90070000Y-103905000D02*
X90505000Y-103470000D01*
X81700000Y-103938629D02*
X82168629Y-103470000D01*
X90505000Y-103470000D02*
X91471371Y-103470000D01*
X106770280Y-129750000D02*
X96980000Y-129750000D01*
X113950000Y-84320000D02*
X118882500Y-84320000D01*
X82168629Y-103470000D02*
X83135000Y-103470000D01*
X109900000Y-126620280D02*
X106770280Y-129750000D01*
X127037500Y-92475000D02*
X127037500Y-107425000D01*
X125337500Y-107162500D02*
X125837500Y-107162500D01*
X99040000Y-110000000D02*
X107000000Y-110000000D01*
X106750000Y-91520000D02*
X113950000Y-84320000D01*
X81700000Y-103938629D02*
X81700000Y-122430000D01*
%TO.N,+5V*%
X89270000Y-103905000D02*
X89035000Y-104140000D01*
X84370000Y-103905000D02*
X84370000Y-104630000D01*
X88537590Y-105462410D02*
X89270000Y-104730000D01*
X89270000Y-104730000D02*
X89270000Y-103905000D01*
X108200000Y-125800000D02*
X106508629Y-125800000D01*
X84370000Y-104629999D02*
X84870000Y-105130000D01*
X84370000Y-104630000D02*
X85202410Y-105462410D01*
X85202410Y-105462410D02*
X88537590Y-105462410D01*
X84870000Y-105130000D02*
X85202410Y-105462410D01*
X84370000Y-103905000D02*
X84370000Y-104629999D01*
X89270000Y-104770000D02*
X89270000Y-103905000D01*
X106508629Y-125800000D02*
X88537590Y-107828961D01*
X88537590Y-107828961D02*
X88537590Y-105462410D01*
X84870000Y-105130000D02*
X85070001Y-105330000D01*
%TO.N,Net-(U1-USB_D+)*%
X87570000Y-103000000D02*
X87570000Y-103905000D01*
X86837590Y-102880000D02*
X87450000Y-102880000D01*
X87450000Y-102880000D02*
X87570000Y-103000000D01*
X87520000Y-103955000D02*
X87570000Y-103905000D01*
X86570000Y-104662410D02*
X86570000Y-103905000D01*
X86570000Y-103905000D02*
X86570000Y-103147590D01*
X100850000Y-83350000D02*
X100850000Y-99490000D01*
X87570000Y-103905000D02*
X87570000Y-93364315D01*
X100150000Y-82650000D02*
X100850000Y-83350000D01*
X87570000Y-93364315D02*
X98284315Y-82650000D01*
X100030000Y-100310000D02*
X99500000Y-100310000D01*
X87520000Y-103955000D02*
X87520000Y-104000000D01*
X100850000Y-99490000D02*
X100030000Y-100310000D01*
X86570000Y-103147590D02*
X86837590Y-102880000D01*
X98284315Y-82650000D02*
X100150000Y-82650000D01*
%TO.N,Net-(U1-USB_D-)*%
X87070000Y-103905000D02*
X87070000Y-104480000D01*
X86070000Y-103905000D02*
X86020000Y-103955000D01*
X87070000Y-104728095D02*
X86735685Y-105062410D01*
X86735685Y-105062410D02*
X86404315Y-105062410D01*
X86070000Y-104728095D02*
X86070000Y-103905000D01*
X87070000Y-104530000D02*
X87120000Y-104530000D01*
X86120000Y-104400000D02*
X86120000Y-103905000D01*
X87070000Y-104480000D02*
X87120000Y-104530000D01*
X86070000Y-103905000D02*
X86070000Y-93430000D01*
X86070000Y-93430000D02*
X96500000Y-83000000D01*
X87070000Y-103905000D02*
X87070000Y-104728095D01*
X86404315Y-105062410D02*
X86070000Y-104728095D01*
X86020000Y-104500000D02*
X86120000Y-104400000D01*
X99500000Y-99040000D02*
X100450000Y-99040000D01*
X86020000Y-103955000D02*
X86020000Y-104500000D01*
%TO.N,unconnected-(J1-SHIELD-PadSH)*%
X91071371Y-104888629D02*
X91071371Y-108931371D01*
X82568629Y-108931371D02*
X82500000Y-109000000D01*
X82770000Y-105770000D02*
X83000000Y-105770000D01*
X91071371Y-108931371D02*
X91140000Y-109000000D01*
X82568629Y-104888629D02*
X82568629Y-108931371D01*
X91140000Y-104820000D02*
X91071371Y-104888629D01*
X82500000Y-104820000D02*
X82500000Y-105500000D01*
X82500000Y-104820000D02*
X82568629Y-104888629D01*
X82500000Y-105500000D02*
X82770000Y-105770000D01*
%TO.N,Net-(U1-IO0)*%
X109500000Y-126454594D02*
X109500000Y-109095000D01*
X98580000Y-126850000D02*
X109104594Y-126850000D01*
X89020000Y-125250000D02*
X96980000Y-125250000D01*
X96980000Y-125250000D02*
X98580000Y-126850000D01*
X109104594Y-126850000D02*
X109500000Y-126454594D01*
X117000000Y-101595000D02*
X117000000Y-100310000D01*
X109500000Y-109095000D02*
X117000000Y-101595000D01*
%TO.N,Net-(U1-EN)*%
X98550000Y-86340000D02*
X99500000Y-86340000D01*
X100030000Y-86340000D02*
X99500000Y-86340000D01*
X98450000Y-86440000D02*
X98550000Y-86340000D01*
X98450000Y-104910000D02*
X98450000Y-86440000D01*
X107000000Y-105500000D02*
X99040000Y-105500000D01*
X99040000Y-105500000D02*
X98450000Y-104910000D01*
%TD*%
M02*
