M48
; DRILL file KiCad 10.0.0 date 2026-03-25T13:37:44
; FORMAT={-:-/ absolute / metric / decimal}
; #@! TF.CreationDate,2026-03-25T13:37:44+01:00
; #@! TF.GenerationSoftware,Kicad,Pcbnew,10.0.0
; #@! TF.FileFunction,Plated,1,2,PTH
FMAT,2
METRIC
; #@! TA.AperFunction,Plated,PTH,ComponentDrill
T1C0.200
; #@! TA.AperFunction,Plated,PTH,ComponentDrill
T2C0.600
%
G90
G05
T1
X105.35Y-90.82
X105.35Y-92.22
X106.05Y-90.12
X106.05Y-91.52
X106.05Y-92.92
X106.75Y-90.82
X106.75Y-92.22
X107.45Y-90.12
X107.45Y-91.52
X107.45Y-92.92
X108.15Y-90.82
X108.15Y-92.22
T2
G00X82.5Y-104.27
M15
G01X82.5Y-105.37
M16
G05
G00X82.5Y-108.7
M15
G01X82.5Y-109.3
M16
G05
G00X91.14Y-104.27
M15
G01X91.14Y-105.37
M16
G05
G00X91.14Y-108.7
M15
G01X91.14Y-109.3
M16
G05
M30
